<!DOCTYPE svg PUBLIC "-//W3C//DTD SVG 1.1//EN" "http://www.w3.org/Graphics/SVG/1.1/DTD/svg11.dtd">


<svg fill="#000000"  viewBox="0 0 24 24" id="money-dollar-coin" data-name="Flat Line" xmlns="http://www.w3.org/2000/svg" class="icon flat-line">

<g id="SVGRepo_bgCarrier" stroke-width="0"/>

<g id="SVGRepo_tracerCarrier" stroke-linecap="round" stroke-linejoin="round"/>

<g id="SVGRepo_iconCarrier">

<circle id="secondary" cx="12" cy="12" r="9" style="fill: #3396FF; stroke-width: 2;"/>

<path id="primary" d="M10,15h2.5A1.5,1.5,0,0,0,14,13.5h0A1.5,1.5,0,0,0,12.5,12h-1A1.5,1.5,0,0,1,10,10.5h0A1.5,1.5,0,0,1,11.5,9H14" style="fill: none; stroke: #fff; stroke-linecap: round; stroke-linejoin: round; stroke-width: 2;"/>

<path id="primary-2" data-name="primary" d="M12,9V8m0,8V15M12,3a9,9,0,1,0,9,9A9,9,0,0,0,12,3Z" style="fill: none; stroke: #fff; stroke-linecap: round; stroke-linejoin: round; stroke-width: 2;"/>

</g>

</svg>