<svg role="img"
     height="32"
     width="32"
     aria-hidden="true"
     viewBox="0 0 24 24"
     data-encore-id="icon"
     class="Svg-sc-ytk21e-0 haNxPq">
  <path d="M12 1a11 11 0 1 0 0 22 11 11 0 0 0 0-22zm5.045 15.866a.686.686 0 0 1-.943.228c-2.583-1.579-5.834-1.935-9.663-1.06a.686.686 0 0 1-.306-1.337c4.19-.958 7.785-.546 10.684 1.226a.686.686 0 0 1 .228.943zm1.346-2.995a.858.858 0 0 1-1.18.282c-2.956-1.817-7.464-2.344-10.961-1.282a.856.856 0 0 1-1.11-.904.858.858 0 0 1 .611-.737c3.996-1.212 8.962-.625 12.357 1.462a.857.857 0 0 1 .283 1.179zm.116-3.119c-3.546-2.106-9.395-2.3-12.78-1.272a1.029 1.029 0 0 1-.597-1.969c3.886-1.18 10.345-.952 14.427 1.471a1.029 1.029 0 0 1-1.05 1.77z" />
</svg>
